# xmcd
#
# Track frame offsets: 
#        150
#        18177
#        36295
#        57340
#        80320
#        99515
#        115255
#        127512
#        166830
#        180122
#        187505
#
# Disc length: 2940 seconds
#
# Revision: 6
# Processed by: cddbd v1.5.2PL0 Copyright (c) Steve Scherf et al.
# Submitted via: ExactAudioCopyFreeDBPlugin 1.0
#
DISCID=6d0b7a0b
DTITLE=Carmel - Everybodys Got A Little ... Soul
DYEAR=1987
DGENRE=Blues
TTITLE0=It's All In the Game
TTITLE1=Every Little Bit
TTITLE2=Sweet And Lovely
TTITLE3=Nothing Good
TTITLE4=Azure
TTITLE5=Lay Down
TTITLE6=Jazz Robin
TTITLE7=I Do And Do
TTITLE8=A Hey Hey (Everybody's Got A Little... Soul)
TTITLE9=A Hey Hey (Reprise)
TTITLE10=It's All In The Game (12'')
EXTD=JUKE LIVE AT THE QUASIMODO BERLIN YEAR: 1987 ID3G:   0
EXTT0=
EXTT1=
EXTT2=
EXTT3=
EXTT4=
EXTT5=
EXTT6=
EXTT7=
EXTT8=
EXTT9=
EXTT10=
PLAYORDER=
